Coordinates
version=1
nRows=5
nColumns=46
inDegrees=yes

Units are S.I. units (second, meters, Newtons, ...)
Angles are in degrees.

endheader
time	pelvis_tilt	pelvis_list	pelvis_rotation	pelvis_tx	pelvis_ty	pelvis_tz	bb_angle	bb_tx	bb_ty	bb_tz	hip_flexion_r	hip_adduction_r	hip_rotation_r	knee_angle_r	knee_angle_r_beta	ankle_angle_r	subtalar_angle_r	mtp_angle_r	crank_angle_r	hip_flexion_l	hip_adduction_l	hip_rotation_l	knee_angle_l	knee_angle_l_beta	ankle_angle_l	subtalar_angle_l	mtp_angle_l	crank_angle_l	lumbar_extension	lumbar_bending	lumbar_rotation	arm_flex_r	arm_add_r	arm_rot_r	elbow_flex_r	pro_sup_r	wrist_flex_r	wrist_dev_r	arm_flex_l	arm_add_l	arm_rot_l	elbow_flex_l	pro_sup_l	wrist_flex_l	wrist_dev_l
      0.00000000	    -21.57835654	      5.19893173	      3.90532542	      0.13263791	      1.10669378	     -0.28589820	      0.00000000	      0.50000000	      0.00000000	      0.25000000	     50.30186431	    -10.12817055	      1.54222765	     55.72364437	      0.97256107	      7.41154464	     -9.86433057	      0.00000000	      0.00000000	     92.07730882	     -6.64798667	     -4.89746774	     98.28773928	      1.71544466	     23.05031930	      2.73938043	      0.00000000	      0.00000000	    -36.76401111	     -2.64491421	     -8.95758053	     77.59013145	     -4.56305932	     42.51024948	     23.45445937	     41.94523618	      0.00000000	      0.00000000	     77.71559600	    -16.17032870	     54.23425349	     24.36391618	     45.32105338	      0.00000000	      0.00000000
      0.00500000	    -21.57825205	      5.19639581	      3.93563627	      0.13265891	      1.10669983	     -0.28594918	      0.00000000	      0.50000000	      0.00000000	      0.25000000	     50.28595096	    -10.15155308	      1.51565298	     55.70520821	      0.97223929	      7.41015857	     -9.87554700	      0.00000000	      0.00000000	     92.07581920	     -6.61812815	     -4.89487805	     98.29253869	      1.71552843	     23.06658945	      2.73677813	      0.00000000	      0.00000000	    -36.76011319	     -2.61955158	     -8.98867525	     77.57464663	     -4.54017442	     42.45609715	     23.45000243	     41.91004056	      0.00000000	      0.00000000	     77.70399145	    -16.18460356	     54.18115111	     24.35920169	     45.39393916	      0.00000000	      0.00000000
      0.01000000	    -21.57864859	      5.21753305	      3.93087610	      0.13264604	      1.10667211	     -0.28589316	      0.00000000	      0.50000000	      0.00000000	      0.25000000	     50.29163848	    -10.14355593	      1.56911696	     55.71608384	      0.97242911	      7.45315083	     -9.91708861	      0.00000000	      0.00000000	     92.07126966	     -6.63480873	     -4.91393879	     98.29438488	      1.71556065	     23.07199774	      2.81451103	      0.00000000	      0.00000000	    -36.75466785	     -2.63549736	     -8.97873241	     77.59128493	     -4.56276780	     42.48048293	     23.42626418	     42.04438103	      0.00000000	      0.00000000	     77.69231994	    -16.16173601	     54.13829576	     24.32464470	     45.48741890	      0.00000000	      0.00000000
      0.01500000	    -21.53844002	      5.19688722	      3.95263250	      0.13275807	      1.10680571	     -0.28589385	      0.00000000	      0.50000000	      0.00000000	      0.25000000	     50.19359725	    -10.14307577	      1.50103409	     55.64479261	      0.97118484	      7.42690137	     -9.95545102	      0.00000000	      0.00000000	     92.03034028	     -6.63866433	     -4.90563513	     98.30593278	      1.71576220	     23.06898267	      2.80450991	      0.00000000	      0.00000000	    -36.81430401	     -2.60546997	     -8.98962186	     77.57324417	     -4.57207496	     42.47516771	     23.47995351	     42.11264001	      0.00000000	      0.00000000	     77.74779384	    -16.06167303	     54.15478196	     24.12315022	     45.58879203	      0.00000000	      0.00000000
      0.02000000	    -21.57077771	      5.13954100	      3.92830777	      0.13275370	      1.10678531	     -0.28583443	      0.00000000	      0.50000000	      0.00000000	      0.25000000	     50.20968171	    -10.06353354	      1.49591526	     55.60346328	      0.97046351	      7.38368491	     -9.95396408	      0.00000000	      0.00000000	     92.07280010	     -6.66896288	     -4.84594388	     98.31389459	      1.71590116	     23.10014683	      2.79129120	      0.00000000	      0.00000000	    -36.77321460	     -2.57185095	     -8.94692261	     77.56760226	     -4.38427799	     41.81652227	     23.32383881	     42.00112175	      0.00000000	      0.00000000	     77.59694566	    -15.90605202	     53.27098212	     24.20294574	     45.36771701	      0.00000000	      0.00000000
